<?xml version="1.0" encoding="UTF-8" standalone="no"?>
<!-- Created with Inkscape (http://www.inkscape.org/) -->

<svg
   version="1.1"
   id="svg1"
   width="1024"
   height="1024"
   viewBox="0 0 1024 1024"
   sodipodi:docname="fav_icon_dark.svg"
   inkscape:version="1.4.2 (f4327f4, 2025-05-13)"
   xmlns:inkscape="http://www.inkscape.org/namespaces/inkscape"
   xmlns:sodipodi="http://sodipodi.sourceforge.net/DTD/sodipodi-0.dtd"
   xmlns="http://www.w3.org/2000/svg"
   xmlns:svg="http://www.w3.org/2000/svg">
  <sodipodi:namedview
     id="namedview1"
     pagecolor="#000000"
     bordercolor="#000000"
     borderopacity="0.25"
     inkscape:showpageshadow="2"
     inkscape:pageopacity="0.0"
     inkscape:pagecheckerboard="0"
     inkscape:deskcolor="#d1d1d1"
     inkscape:zoom="0.53378276"
     inkscape:cx="384.05137"
     inkscape:cy="360.63361"
     inkscape:window-width="1920"
     inkscape:window-height="991"
     inkscape:window-x="-9"
     inkscape:window-y="-9"
     inkscape:window-maximized="1"
     inkscape:current-layer="layer1" />
  <defs
     id="defs1">
    <rect
       x="269.92815"
       y="721.12193"
       width="596.99438"
       height="105.4099"
       id="rect7" />
  </defs>
  <g
     id="layer1"
     transform="matrix(2.0319786,0,0,3.2128184,-537.39,-798.58859)">
    <g
       id="g34"
       transform="matrix(1.1279011,0,0,0.96749823,-87.226362,2.1051579)"
       style="display:none">
      <path
         style="display:inline;fill:#f89748;fill-opacity:1"
         d="m 569.43702,389.07884 c 1.72347,-9.74557 2.07828,-19.56765 0.43975,-31.67115 -1.4892,-11.00041 -4.49005,-22.95042 -8.52312,-33.87229 -3.91683,-10.60708 -3.46073,-12.24071 -15.08853,-30.38093 11.71825,-10.34529 16.89634,-14.40274 26.50865,-19.81745 10.82345,-6.09696 22.50105,-10.9512 34.55283,-13.96361 9.33474,-2.33327 19.08377,-2.88616 28.70432,-3.04882 7.65837,-0.12948 15.41558,0.11426 22.91886,1.65317 9.19439,1.88575 18.09215,5.26041 26.61441,9.19283 8.45981,3.90361 16.51558,8.75046 24.08719,14.17976 5.57778,3.99961 11.18196,8.19102 15.58681,13.45464 9.95126,11.89135 18.7535,25.32819 23.71392,40.01921 4.68316,13.86989 5.39088,28.98452 5.09727,43.62077 -0.224,11.16646 -1.29784,22.63973 -5.22041,33.09695 -5.21175,13.89406 -13.31363,27.08517 -23.69592,37.68779 -11.55895,11.80426 -25.36921,23.24487 -41.39592,27.25668 -21.80245,5.45761 -61.15807,15.48805 -67.142,-6.17586 -4.95313,-17.93206 35.8595,-18.32754 45.07295,-32.91291 8.41322,-13.31856 20.46653,-35.30204 6.01026,-44.61576 -24.02574,-15.47905 -71.27219,45.91928 -86.97102,24.5524 -9.78239,-13.31431 51.19912,-17.49302 42.45719,-31.27386 -3.82921,-6.03639 -17.48315,0.65867 -24.5816,4.26531 -23.08753,11.73049 -22.09804,4.52457 -29.14589,-1.24687 z"
         id="path5" />
    </g>
    <g
       id="g32"
       transform="matrix(1,0,0,0.66335265,-6.2224996,106.18073)"
       style="display:none">
      <path
         d="m 330.58448,624.19885 c 5.80267,0 10.46755,1.792 13.99466,5.376 3.584,3.52711 5.376,8.47644 5.376,14.84799 v 27.73332 h -11.94666 v -26.11199 c 0,-3.69777 -0.93867,-6.51377 -2.816,-8.44799 -1.87733,-1.99111 -4.43733,-2.98667 -7.68,-2.98667 -3.24267,0 -5.83111,0.99556 -7.76533,2.98667 -1.87733,1.93422 -2.816,4.75022 -2.816,8.44799 v 26.11199 h -11.94666 v -26.11199 c 0,-3.69777 -0.93867,-6.51377 -2.816,-8.44799 -1.87733,-1.99111 -4.43733,-2.98667 -7.67999,-2.98667 -3.29956,0 -5.91645,0.99556 -7.85067,2.98667 -1.87733,1.93422 -2.816,4.75022 -2.816,8.44799 v 26.11199 h -11.94666 v -47.27464 h 11.94666 v 5.71733 c 1.536,-1.99111 3.49867,-3.55556 5.888,-4.69333 2.44622,-1.13778 5.12,-1.70667 8.02133,-1.70667 3.69778,0 6.99733,0.79644 9.89866,2.38933 2.90133,1.536 5.14844,3.75467 6.74133,6.656 1.536,-2.73067 3.75467,-4.92089 6.656,-6.57066 2.95822,-1.64978 6.144,-2.47467 9.55733,-2.47467 z m 74.66666,23.29599 c 0,1.70667 -0.11378,3.24267 -0.34133,4.608 h -34.55999 c 0.28445,3.41333 1.47911,6.08711 3.584,8.02133 2.10489,1.93422 4.69333,2.90133 7.76533,2.90133 4.43733,0 7.59467,-1.90578 9.472,-5.71733 h 12.88533 c -1.36533,4.55111 -3.98222,8.30577 -7.85067,11.26399 -3.86844,2.90133 -8.61866,4.352 -14.25066,4.352 -4.55111,0 -8.6471,-0.99555 -12.28799,-2.98666 -3.584,-2.048 -6.4,-4.92089 -8.448,-8.61867 -1.99111,-3.69777 -2.98667,-7.96444 -2.98667,-12.79999 0,-4.89244 0.99556,-9.18755 2.98667,-12.88533 1.99111,-3.69777 4.77867,-6.54222 8.36266,-8.53333 3.584,-1.99111 7.70844,-2.98666 12.37333,-2.98666 4.49422,0 8.50489,0.96711 12.032,2.90133 3.58399,1.93422 6.3431,4.69333 8.27733,8.27733 1.99111,3.52711 2.98666,7.59466 2.98666,12.20266 z m -12.37333,-3.41333 c -0.0569,-3.072 -1.1662,-5.51822 -3.328,-7.33867 -2.16177,-1.87733 -4.8071,-2.81599 -7.93599,-2.81599 -2.95822,0 -5.46133,0.91022 -7.50933,2.73066 -1.99111,1.76355 -3.21422,4.23822 -3.66933,7.424 z m 39.16804,28.84265 c -3.86845,0 -7.33867,-0.68267 -10.41066,-2.048 -3.072,-1.42222 -5.51822,-3.328 -7.33867,-5.71733 -1.76355,-2.38933 -2.73066,-5.03466 -2.90133,-7.93599 h 12.032 c 0.22755,1.82044 1.10933,3.32799 2.64533,4.52266 1.59289,1.19467 3.55555,1.792 5.88799,1.792 2.27556,0 4.03912,-0.45511 5.29067,-1.36533 1.30845,-0.91023 1.96267,-2.07645 1.96267,-3.49867 0,-1.536 -0.79645,-2.67378 -2.38934,-3.41333 -1.536,-0.79645 -4.01066,-1.64978 -7.42399,-2.56 -3.52711,-0.85333 -6.42845,-1.73511 -8.704,-2.64533 -2.21867,-0.91022 -4.15289,-2.304 -5.80266,-4.18133 -1.59289,-1.87733 -2.38934,-4.40889 -2.38934,-7.59467 0,-2.61689 0.73956,-5.00622 2.21867,-7.16799 1.536,-2.16178 3.69778,-3.86845 6.48533,-5.12 2.84444,-1.25155 6.17244,-1.87733 9.984,-1.87733 5.63199,0 10.12621,1.42222 13.48266,4.26666 3.35644,2.78755 5.20533,6.57066 5.54666,11.34933 h -11.43466 c -0.17067,-1.87733 -0.96711,-3.35644 -2.38933,-4.43733 -1.36533,-1.13778 -3.21422,-1.70667 -5.54667,-1.70667 -2.16177,0 -3.83999,0.39822 -5.03466,1.19467 -1.13778,0.79644 -1.70667,1.90577 -1.70667,3.328 0,1.59289 0.79644,2.816 2.38933,3.66933 1.59289,0.79645 4.06756,1.62133 7.424,2.47466 3.41333,0.85333 6.22933,1.73511 8.448,2.64534 2.21867,0.91022 4.12444,2.33244 5.71733,4.26666 1.64977,1.87733 2.50311,4.38044 2.56,7.50933 0,2.73067 -0.768,5.17689 -2.304,7.33867 -1.47911,2.16177 -3.64089,3.86844 -6.48533,5.11999 -2.78755,1.19467 -6.05866,1.792 -9.81333,1.792 z m 46.50665,0 c -3.86844,0 -7.33866,-0.68267 -10.41066,-2.048 -3.072,-1.42222 -5.51822,-3.328 -7.33866,-5.71733 -1.76356,-2.38933 -2.73067,-5.03466 -2.90134,-7.93599 h 12.032 c 0.22755,1.82044 1.10933,3.32799 2.64533,4.52266 1.59289,1.19467 3.55555,1.792 5.888,1.792 2.27555,0 4.03911,-0.45511 5.29066,-1.36533 1.30845,-0.91023 1.96267,-2.07645 1.96267,-3.49867 0,-1.536 -0.79644,-2.67378 -2.38933,-3.41333 -1.536,-0.79645 -4.01067,-1.64978 -7.424,-2.56 -3.52711,-0.85333 -6.42845,-1.73511 -8.704,-2.64533 -2.21867,-0.91022 -4.15289,-2.304 -5.80266,-4.18133 -1.59289,-1.87733 -2.38933,-4.40889 -2.38933,-7.59467 0,-2.61689 0.73955,-5.00622 2.21866,-7.16799 1.536,-2.16178 3.69778,-3.86845 6.48533,-5.12 2.84445,-1.25155 6.17245,-1.87733 9.984,-1.87733 5.63199,0 10.12621,1.42222 13.48266,4.26666 3.35644,2.78755 5.20533,6.57066 5.54666,11.34933 h -11.43466 c -0.17067,-1.87733 -0.96711,-3.35644 -2.38933,-4.43733 -1.36533,-1.13778 -3.21422,-1.70667 -5.54667,-1.70667 -2.16177,0 -3.83999,0.39822 -5.03466,1.19467 -1.13778,0.79644 -1.70667,1.90577 -1.70667,3.328 0,1.59289 0.79645,2.816 2.38934,3.66933 1.59289,0.79645 4.06755,1.62133 7.42399,2.47466 3.41333,0.85333 6.22933,1.73511 8.448,2.64534 2.21867,0.91022 4.12444,2.33244 5.71733,4.26666 1.64978,1.87733 2.50311,4.38044 2.56,7.50933 0,2.73067 -0.768,5.17689 -2.304,7.33867 -1.47911,2.16177 -3.64088,3.86844 -6.48533,5.11999 -2.78755,1.19467 -6.05866,1.792 -9.81333,1.792 z m 73.64264,-48.04264 -29.26932,69.63197 h -12.71466 l 10.24,-23.55199 -18.944,-46.07998 h 13.39733 l 12.20266,33.02398 12.37333,-33.02398 z m 65.10928,-0.68267 c 5.80267,0 10.46755,1.792 13.99466,5.376 3.584,3.52711 5.376,8.47644 5.376,14.84799 v 27.73332 h -11.94666 v -26.11199 c 0,-3.69777 -0.93867,-6.51377 -2.816,-8.44799 -1.87733,-1.99111 -4.43733,-2.98667 -7.68,-2.98667 -3.24267,0 -5.83111,0.99556 -7.76533,2.98667 -1.87733,1.93422 -2.816,4.75022 -2.816,8.44799 v 26.11199 h -11.94666 v -26.11199 c 0,-3.69777 -0.93867,-6.51377 -2.816,-8.44799 -1.87733,-1.99111 -4.43733,-2.98667 -7.67999,-2.98667 -3.29956,0 -5.91645,0.99556 -7.85067,2.98667 -1.87733,1.93422 -2.816,4.75022 -2.816,8.44799 v 26.11199 h -11.94666 v -47.27464 h 11.94666 v 5.71733 c 1.536,-1.99111 3.49867,-3.55556 5.888,-4.69333 2.44622,-1.13778 5.12,-1.70667 8.02133,-1.70667 3.69778,0 6.99733,0.79644 9.89866,2.38933 2.90133,1.536 5.14844,3.75467 6.74133,6.656 1.536,-2.73067 3.75467,-4.92089 6.656,-6.57066 2.95822,-1.64978 6.144,-2.47467 9.55733,-2.47467 z m 36.77868,-4.94933 c -2.10489,0 -3.86844,-0.65422 -5.29067,-1.96267 -1.36533,-1.36533 -2.048,-3.04355 -2.048,-5.03466 0,-1.99111 0.68267,-3.64089 2.048,-4.94933 1.42223,-1.36533 3.18578,-2.048 5.29067,-2.048 2.10489,0 3.84,0.68267 5.20533,2.048 1.42222,1.30844 2.13333,2.95822 2.13333,4.94933 0,1.99111 -0.71111,3.66933 -2.13333,5.03466 -1.36533,1.30845 -3.10044,1.96267 -5.20533,1.96267 z m 5.888,5.632 v 47.27464 h -11.94667 v -47.27464 z m 37.97328,-0.68267 c 5.632,0 10.18311,1.792 13.65333,5.376 3.47022,3.52711 5.20533,8.47644 5.20533,14.84799 v 27.73332 h -11.94666 v -26.11199 c 0,-3.75466 -0.93867,-6.62755 -2.816,-8.61866 -1.87733,-2.048 -4.43733,-3.072 -7.68,-3.072 -3.29955,0 -5.91644,1.024 -7.85066,3.072 -1.87733,1.99111 -2.816,4.864 -2.816,8.61866 v 26.11199 h -11.94666 v -47.27464 h 11.94666 v 5.88799 c 1.59289,-2.048 3.61244,-3.64089 6.05866,-4.77866 2.50311,-1.19467 5.23378,-1.792 8.192,-1.792 z m 27.13595,24.14932 c 0,-4.77866 0.93867,-9.01688 2.816,-12.71466 1.93422,-3.69777 4.55111,-6.54222 7.85067,-8.53333 3.29955,-1.99111 6.96888,-2.98666 11.00799,-2.98666 3.072,0 6.00178,0.68267 8.78933,2.048 2.78755,1.30844 5.00622,3.07199 6.656,5.29066 v -22.44266 h 12.11733 v 63.14664 h -12.11733 v -6.99733 c -1.47911,2.33245 -3.55556,4.20978 -6.22933,5.632 -2.67378,1.42222 -5.77422,2.13333 -9.30133,2.13333 -3.98222,0 -7.62311,-1.024 -10.92266,-3.072 -3.29956,-2.04799 -5.91645,-4.92088 -7.85067,-8.61866 -1.87733,-3.75467 -2.816,-8.04978 -2.816,-12.88533 z m 37.20532,0.17067 c 0,-2.90133 -0.56889,-5.376 -1.70666,-7.424 -1.13778,-2.10489 -2.67378,-3.69777 -4.608,-4.77866 -1.93422,-1.13778 -4.01066,-1.70667 -6.22933,-1.70667 -2.21867,0 -4.26667,0.54044 -6.144,1.62133 -1.87733,1.08089 -3.41333,2.67378 -4.608,4.77867 -1.13777,2.048 -1.70666,4.49422 -1.70666,7.33866 0,2.84445 0.56889,5.34756 1.70666,7.50933 1.19467,2.10489 2.73067,3.72623 4.608,4.864 1.93422,1.13778 3.98222,1.70667 6.144,1.70667 2.21867,0 4.29511,-0.54045 6.22933,-1.62134 1.93422,-1.13777 3.47022,-2.73066 4.608,-4.77866 1.13777,-2.10489 1.70666,-4.608 1.70666,-7.50933 z"
         id="path9"
         style="font-weight:600;font-size:85.3333px;line-height:1.1;font-family:Poppins;-inkscape-font-specification:'Poppins Semi-Bold';white-space:pre;display:inline;fill:#ffffff;fill-opacity:1"
         aria-label="messymind" />
      <path
         id="path30"
         style="font-weight:600;font-size:85.3333px;line-height:1.1;font-family:Poppins;-inkscape-font-specification:'Poppins Semi-Bold';white-space:pre;display:inline;fill:#ffffff;fill-opacity:1"
         d="m 725.08033,648.34817 c 0,-4.77866 0.93867,-9.01688 2.816,-12.71466 1.93422,-3.69777 4.55111,-6.54222 7.85067,-8.53333 3.29955,-1.99111 6.96888,-2.98666 11.00799,-2.98666 3.072,0 6.00178,0.68267 8.78933,2.048 2.78755,1.30844 5.00622,3.07199 6.656,5.29066 v -22.44266 h 12.11733 v 63.14664 h -12.11733 v -6.99733 c -1.47911,2.33245 -3.55556,4.20978 -6.22933,5.632 -2.67378,1.42222 -5.77422,2.13333 -9.30133,2.13333 -3.98222,0 -7.62311,-1.024 -10.92266,-3.072 -3.29956,-2.04799 -5.91645,-4.92088 -7.85067,-8.61866 -1.87733,-3.75467 -2.816,-8.04978 -2.816,-12.88533 z m 37.20532,0.17067 c 0,-2.90133 -0.56889,-5.376 -1.70666,-7.424 -1.13778,-2.10489 -2.67378,-3.69777 -4.608,-4.77866 -1.93422,-1.13778 -4.01066,-1.70667 -6.22933,-1.70667 -2.21867,0 -4.26667,0.54044 -6.144,1.62133 -1.87733,1.08089 -3.41333,2.67378 -4.608,4.77867 -1.13777,2.048 -1.70666,4.49422 -1.70666,7.33866 0,2.84445 0.56889,5.34756 1.70666,7.50933 1.19467,2.10489 2.73067,3.72623 4.608,4.864 1.93422,1.13778 3.98222,1.70667 6.144,1.70667 2.21867,0 4.29511,-0.54045 6.22933,-1.62134 1.93422,-1.13777 3.47022,-2.73066 4.608,-4.77866 1.13777,-2.10489 1.70666,-4.608 1.70666,-7.50933 z" />
      <path
         style="font-weight:600;font-size:85.3333px;line-height:1.1;font-family:Poppins;-inkscape-font-specification:'Poppins Semi-Bold';white-space:pre;display:inline;fill:#ffffff;fill-opacity:1"
         d="m 697.94438,624.19885 c 5.632,0 10.18311,1.792 13.65333,5.376 3.47022,3.52711 5.20533,8.47644 5.20533,14.84799 v 27.73332 h -11.94666 v -26.11199 c 0,-3.75466 -0.93867,-6.62755 -2.816,-8.61866 -1.87733,-2.048 -4.43733,-3.072 -7.68,-3.072 -3.29955,0 -5.91644,1.024 -7.85066,3.072 -1.87733,1.99111 -2.816,4.864 -2.816,8.61866 v 26.11199 h -11.94666 v -47.27464 h 11.94666 v 5.88799 c 1.59289,-2.048 3.61244,-3.64089 6.05866,-4.77866 2.50311,-1.19467 5.23378,-1.792 8.192,-1.792 z"
         id="path29" />
      <path
         style="font-weight:600;font-size:85.3333px;line-height:1.1;font-family:Poppins;-inkscape-font-specification:'Poppins Semi-Bold';white-space:pre;display:inline;fill:#ffffff;fill-opacity:1"
         d="m 659.9711,624.88152 v 47.27464 h -11.94667 v -47.27464 z"
         id="path28" />
      <path
         style="font-weight:600;font-size:85.3333px;line-height:1.1;font-family:Poppins;-inkscape-font-specification:'Poppins Semi-Bold';white-space:pre;display:inline;fill:#f89748;fill-opacity:1"
         d="m 654.0831,619.24952 c -2.10489,0 -3.86844,-0.65422 -5.29067,-1.96267 -1.36533,-1.36533 -2.048,-3.04355 -2.048,-5.03466 0,-1.99111 0.68267,-3.64089 2.048,-4.94933 1.42223,-1.36533 3.18578,-2.048 5.29067,-2.048 2.10489,0 3.84,0.68267 5.20533,2.048 1.42222,1.30844 2.13333,2.95822 2.13333,4.94933 0,1.99111 -0.71111,3.66933 -2.13333,5.03466 -1.36533,1.30845 -3.10044,1.96267 -5.20533,1.96267 z"
         id="path27" />
      <path
         style="font-weight:600;font-size:85.3333px;line-height:1.1;font-family:Poppins;-inkscape-font-specification:'Poppins Semi-Bold';white-space:pre;display:inline;fill:#ffffff;fill-opacity:1"
         d="m 617.30442,624.19885 c 5.80267,0 10.46755,1.792 13.99466,5.376 3.584,3.52711 5.376,8.47644 5.376,14.84799 v 27.73332 h -11.94666 v -26.11199 c 0,-3.69777 -0.93867,-6.51377 -2.816,-8.44799 -1.87733,-1.99111 -4.43733,-2.98667 -7.68,-2.98667 -3.24267,0 -5.83111,0.99556 -7.76533,2.98667 -1.87733,1.93422 -2.816,4.75022 -2.816,8.44799 v 26.11199 h -11.94666 v -26.11199 c 0,-3.69777 -0.93867,-6.51377 -2.816,-8.44799 -1.87733,-1.99111 -4.43733,-2.98667 -7.67999,-2.98667 -3.29956,0 -5.91645,0.99556 -7.85067,2.98667 -1.87733,1.93422 -2.816,4.75022 -2.816,8.44799 v 26.11199 h -11.94666 v -47.27464 h 11.94666 v 5.71733 c 1.536,-1.99111 3.49867,-3.55556 5.888,-4.69333 2.44622,-1.13778 5.12,-1.70667 8.02133,-1.70667 3.69778,0 6.99733,0.79644 9.89866,2.38933 2.90133,1.536 5.14844,3.75467 6.74133,6.656 1.536,-2.73067 3.75467,-4.92089 6.656,-6.57066 2.95822,-1.64978 6.144,-2.47467 9.55733,-2.47467 z"
         id="path26" />
      <path
         style="font-weight:600;font-size:85.3333px;line-height:1.1;font-family:Poppins;-inkscape-font-specification:'Poppins Semi-Bold';white-space:pre;display:inline;fill:#ffffff;fill-opacity:1"
         d="m 552.19514,624.88152 -29.26932,69.63197 h -12.71466 l 10.24,-23.55199 -18.944,-46.07998 h 13.39733 l 12.20266,33.02398 12.37333,-33.02398 z"
         id="path25" />
      <path
         style="font-weight:600;font-size:85.3333px;line-height:1.1;font-family:Poppins;-inkscape-font-specification:'Poppins Semi-Bold';white-space:pre;display:inline;fill:#ffffff;fill-opacity:1"
         d="m 478.5525,672.92416 c -3.86844,0 -7.33866,-0.68267 -10.41066,-2.048 -3.072,-1.42222 -5.51822,-3.328 -7.33866,-5.71733 -1.76356,-2.38933 -2.73067,-5.03466 -2.90134,-7.93599 h 12.032 c 0.22755,1.82044 1.10933,3.32799 2.64533,4.52266 1.59289,1.19467 3.55555,1.792 5.888,1.792 2.27555,0 4.03911,-0.45511 5.29066,-1.36533 1.30845,-0.91023 1.96267,-2.07645 1.96267,-3.49867 0,-1.536 -0.79644,-2.67378 -2.38933,-3.41333 -1.536,-0.79645 -4.01067,-1.64978 -7.424,-2.56 -3.52711,-0.85333 -6.42845,-1.73511 -8.704,-2.64533 -2.21867,-0.91022 -4.15289,-2.304 -5.80266,-4.18133 -1.59289,-1.87733 -2.38933,-4.40889 -2.38933,-7.59467 0,-2.61689 0.73955,-5.00622 2.21866,-7.16799 1.536,-2.16178 3.69778,-3.86845 6.48533,-5.12 2.84445,-1.25155 6.17245,-1.87733 9.984,-1.87733 5.63199,0 10.12621,1.42222 13.48266,4.26666 3.35644,2.78755 5.20533,6.57066 5.54666,11.34933 h -11.43466 c -0.17067,-1.87733 -0.96711,-3.35644 -2.38933,-4.43733 -1.36533,-1.13778 -3.21422,-1.70667 -5.54667,-1.70667 -2.16177,0 -3.83999,0.39822 -5.03466,1.19467 -1.13778,0.79644 -1.70667,1.90577 -1.70667,3.328 0,1.59289 0.79645,2.816 2.38934,3.66933 1.59289,0.79645 4.06755,1.62133 7.42399,2.47466 3.41333,0.85333 6.22933,1.73511 8.448,2.64534 2.21867,0.91022 4.12444,2.33244 5.71733,4.26666 1.64978,1.87733 2.50311,4.38044 2.56,7.50933 0,2.73067 -0.768,5.17689 -2.304,7.33867 -1.47911,2.16177 -3.64088,3.86844 -6.48533,5.11999 -2.78755,1.19467 -6.05866,1.792 -9.81333,1.792 z"
         id="path24" />
      <path
         style="font-weight:600;font-size:85.3333px;line-height:1.1;font-family:Poppins;-inkscape-font-specification:'Poppins Semi-Bold';white-space:pre;display:inline;fill:#ffffff;fill-opacity:1"
         d="m 432.04585,672.92416 c -3.86845,0 -7.33867,-0.68267 -10.41066,-2.048 -3.072,-1.42222 -5.51822,-3.328 -7.33867,-5.71733 -1.76355,-2.38933 -2.73066,-5.03466 -2.90133,-7.93599 h 12.032 c 0.22755,1.82044 1.10933,3.32799 2.64533,4.52266 1.59289,1.19467 3.55555,1.792 5.88799,1.792 2.27556,0 4.03912,-0.45511 5.29067,-1.36533 1.30845,-0.91023 1.96267,-2.07645 1.96267,-3.49867 0,-1.536 -0.79645,-2.67378 -2.38934,-3.41333 -1.536,-0.79645 -4.01066,-1.64978 -7.42399,-2.56 -3.52711,-0.85333 -6.42845,-1.73511 -8.704,-2.64533 -2.21867,-0.91022 -4.15289,-2.304 -5.80266,-4.18133 -1.59289,-1.87733 -2.38934,-4.40889 -2.38934,-7.59467 0,-2.61689 0.73956,-5.00622 2.21867,-7.16799 1.536,-2.16178 3.69778,-3.86845 6.48533,-5.12 2.84444,-1.25155 6.17244,-1.87733 9.984,-1.87733 5.63199,0 10.12621,1.42222 13.48266,4.26666 3.35644,2.78755 5.20533,6.57066 5.54666,11.34933 h -11.43466 c -0.17067,-1.87733 -0.96711,-3.35644 -2.38933,-4.43733 -1.36533,-1.13778 -3.21422,-1.70667 -5.54667,-1.70667 -2.16177,0 -3.83999,0.39822 -5.03466,1.19467 -1.13778,0.79644 -1.70667,1.90577 -1.70667,3.328 0,1.59289 0.79644,2.816 2.38933,3.66933 1.59289,0.79645 4.06756,1.62133 7.424,2.47466 3.41333,0.85333 6.22933,1.73511 8.448,2.64534 2.21867,0.91022 4.12444,2.33244 5.71733,4.26666 1.64977,1.87733 2.50311,4.38044 2.56,7.50933 0,2.73067 -0.768,5.17689 -2.304,7.33867 -1.47911,2.16177 -3.64089,3.86844 -6.48533,5.11999 -2.78755,1.19467 -6.05866,1.792 -9.81333,1.792 z"
         id="path23" />
      <path
         id="path21"
         style="font-weight:600;font-size:85.3333px;line-height:1.1;font-family:Poppins;-inkscape-font-specification:'Poppins Semi-Bold';white-space:pre;display:inline;fill:#ffffff;fill-opacity:1"
         d="m 405.25114,647.49484 c 0,1.70667 -0.11378,3.24267 -0.34133,4.608 h -34.55999 c 0.28445,3.41333 1.47911,6.08711 3.584,8.02133 2.10489,1.93422 4.69333,2.90133 7.76533,2.90133 4.43733,0 7.59467,-1.90578 9.472,-5.71733 h 12.88533 c -1.36533,4.55111 -3.98222,8.30577 -7.85067,11.26399 -3.86844,2.90133 -8.61866,4.352 -14.25066,4.352 -4.55111,0 -8.6471,-0.99555 -12.28799,-2.98666 -3.584,-2.048 -6.4,-4.92089 -8.448,-8.61867 -1.99111,-3.69777 -2.98667,-7.96444 -2.98667,-12.79999 0,-4.89244 0.99556,-9.18755 2.98667,-12.88533 1.99111,-3.69777 4.77867,-6.54222 8.36266,-8.53333 3.584,-1.99111 7.70844,-2.98666 12.37333,-2.98666 4.49422,0 8.50489,0.96711 12.032,2.90133 3.58399,1.93422 6.3431,4.69333 8.27733,8.27733 1.99111,3.52711 2.98666,7.59466 2.98666,12.20266 z m -12.37333,-3.41333 c -0.0569,-3.072 -1.1662,-5.51822 -3.328,-7.33867 -2.16177,-1.87733 -4.8071,-2.81599 -7.93599,-2.81599 -2.95822,0 -5.46133,0.91022 -7.50933,2.73066 -1.99111,1.76355 -3.21422,4.23822 -3.66933,7.424 z" />
      <path
         style="font-weight:600;font-size:85.3333px;line-height:1.1;font-family:Poppins;-inkscape-font-specification:'Poppins Semi-Bold';white-space:pre;display:inline;fill:#ffffff;fill-opacity:1"
         d="m 330.58448,624.19885 c 5.80267,0 10.46755,1.792 13.99466,5.376 3.584,3.52711 5.376,8.47644 5.376,14.84799 v 27.73332 h -11.94666 v -26.11199 c 0,-3.69777 -0.93867,-6.51377 -2.816,-8.44799 -1.87733,-1.99111 -4.43733,-2.98667 -7.68,-2.98667 -3.24267,0 -5.83111,0.99556 -7.76533,2.98667 -1.87733,1.93422 -2.816,4.75022 -2.816,8.44799 v 26.11199 h -11.94666 v -26.11199 c 0,-3.69777 -0.93867,-6.51377 -2.816,-8.44799 -1.87733,-1.99111 -4.43733,-2.98667 -7.67999,-2.98667 -3.29956,0 -5.91645,0.99556 -7.85067,2.98667 -1.87733,1.93422 -2.816,4.75022 -2.816,8.44799 v 26.11199 h -11.94666 v -47.27464 h 11.94666 v 5.71733 c 1.536,-1.99111 3.49867,-3.55556 5.888,-4.69333 2.44622,-1.13778 5.12,-1.70667 8.02133,-1.70667 3.69778,0 6.99733,0.79644 9.89866,2.38933 2.90133,1.536 5.14844,3.75467 6.74133,6.656 1.536,-2.73067 3.75467,-4.92089 6.656,-6.57066 2.95822,-1.64978 6.144,-2.47467 9.55733,-2.47467 z"
         id="path10" />
    </g>
    <g
       id="g4"
       transform="matrix(0.98959496,0.83676752,-1.2378189,0.64768244,730.9937,-287.4732)">
      <path
         style="display:inline;fill:#ffffff;fill-opacity:1"
         d="m 493.80105,559.86695 -1.53825,-1.66242 c 0,0 -7.61159,3.07083 -11.54842,4.20362 -7.029,2.02254 -14.16716,3.97815 -21.45478,4.60106 -11.41441,0.97565 -23.10551,0.84505 -34.3396,-1.39901 -11.54613,-2.3064 -22.81334,-6.57046 -33.13735,-12.23151 -11.61379,-6.3683 -22.54661,-14.40609 -31.64412,-24.03266 -10.41472,-11.02038 -18.67855,-24.14106 -25.42288,-37.72154 -5.75647,-11.59131 -9.18551,-24.24554 -12.53878,-36.74558 -2.86714,-10.68788 -6.44354,-32.56598 -6.44354,-32.56598 0,0 31.54567,-3.31852 47.36871,-3.1347 7.80929,0.0907 15.68605,0.51801 23.33606,2.0898 9.33248,1.91747 18.63759,4.63719 27.16734,8.88163 11.8363,5.8898 22.65757,13.8867 32.56599,22.63946 7.94865,7.02157 15.35951,14.86223 21.24626,23.68435 5.60618,8.40165 9.51203,17.88527 13.06122,27.3415 4.32065,11.51163 6.23117,23.79922 9.92653,35.52653 1.07739,3.41912 3.72916,6.5647 3.56676,10.14587 -0.17157,3.7835 -4.72299,10.33404 -4.72299,10.33404 l -22.62707,-25.8337 -56.80447,-6.80885 12.63805,-76.35983 0.42281,-0.35948 13.6526,56.88691 -2.72433,0.9964 -23.21217,-17.45404 -22.31278,-58.48115 1.14646,-0.35424 15.29565,54.16395 -41.15658,-33.17132 -1.81631,-25.74282 0.4397,0.18418 3.87576,29.48757 -5.00432,-5.44918 -2.88491,-0.62095 -18.22579,-15.84763 0.43121,2.69786 17.26931,16.61564 -23.13904,7.06309 1.27042,2.83776 19.0617,-7.71717 6.90596,-3.16437 34.16476,29.42898 -38.90903,2.88434 -2.05944,-1.08644 41.18754,-1.94006 47.2724,27.12909 -30.60566,9.05311 -23.82573,4.71748 -3.93101,0.0915 15.91061,-3.1525 36.63146,-6.1434 34.50012,27.15733 12.43768,8.58332 z"
         id="path2" />
      <path
         style="display:inline;fill:#054d4a;fill-opacity:1;stroke-width:1.16805"
         d="m 548.58873,602.9147 -78.07615,-64.51203 -29.53771,-75.1618 c -2.6886,-6.84145 -8.2717,-11.17892 -2.11891,4.70808 l 23.7693,64.32509 -51.6606,-41.16491 -15.94507,-45.72893 c -2.75976,-4.30708 -5.28078,-7.04907 -3.88328,0.78148 1.28211,7.18403 16.84074,42.76571 13.36009,39.96635 l -36.9827,-29.74377 c -10.57989,-8.509 -2.23602,-24.35189 -6.35456,-30.80635 -3.7401,-5.86136 -0.81161,13.84974 -1.14251,20.97956 1.26132,9.84876 -6.94879,-0.79687 -10.56282,-3.4729 l -16.37605,-15.91269 c -3.75736,-3.65104 -7.50166,-1.80715 -3.17272,1.67055 3.39707,2.72908 27.13855,24.95973 23.97143,25.75011 l -14.10593,3.52022 c -3.1637,0.78952 -11.57046,0.71654 -4.17971,6.15466 l 22.97485,-6.71103 c 2.84042,-1.02179 5.84107,1.31163 8.97721,3.90134 l 36.94394,30.50681 c 1.60807,1.32787 0.9264,-1.02326 0.91324,-0.34005 -0.0858,4.45758 -29.44846,0.0859 -40.75476,0.75874 -6.51633,0.38778 -4.81562,2.72053 -0.0304,4.32896 9.73105,-0.14456 37.42686,1.01624 47.56492,3.28933 16.53884,13.47993 32.01656,23.87816 48.5554,37.35809 -18.7093,1.44211 -38.02884,1.28623 -57.24228,1.12786 -0.4572,7.41362 12.18208,2.47459 17.0543,3.88141 15.34737,-0.14386 30.58128,-0.63889 45.77759,-1.23634 l 78.37139,64.55671 z"
         id="path4" />
    </g>
    <g
       id="g12"
       transform="matrix(-0.43692323,1.0493309,-1.1330248,-0.40464872,1385.4779,244.78892)">
      <path
         style="display:inline;fill:#76b0b1;fill-opacity:1"
         d="m 493.80105,559.86695 -1.53825,-1.66242 c 0,0 -7.61159,3.07083 -11.54842,4.20362 -7.029,2.02254 -14.16716,3.97815 -21.45478,4.60106 -11.41441,0.97565 -23.10551,0.84505 -34.3396,-1.39901 -11.54613,-2.3064 -22.81334,-6.57046 -33.13735,-12.23151 -11.61379,-6.3683 -22.54661,-14.40609 -31.64412,-24.03266 -10.41472,-11.02038 -18.67855,-24.14106 -25.42288,-37.72154 -5.75647,-11.59131 -9.18551,-24.24554 -12.53878,-36.74558 -2.86714,-10.68788 -6.44354,-32.56598 -6.44354,-32.56598 0,0 31.54567,-3.31852 47.36871,-3.1347 7.80929,0.0907 15.68605,0.51801 23.33606,2.0898 9.33248,1.91747 18.63759,4.63719 27.16734,8.88163 11.8363,5.8898 22.65757,13.8867 32.56599,22.63946 7.94865,7.02157 15.35951,14.86223 21.24626,23.68435 5.60618,8.40165 9.51203,17.88527 13.06122,27.3415 4.32065,11.51163 6.23117,23.79922 9.92653,35.52653 1.07739,3.41912 2.89363,6.62478 3.56676,10.14587 0.39814,2.08266 0.25266,6.35612 0.25266,6.35612 l -27.60272,-21.85578 -27.60272,-21.85579 -14.16614,-62.71168 -1.97475,1.03931 13.6526,56.88691 -2.72433,0.9964 -36.74557,-28.90885 -8.77938,-47.02634 1.14646,-0.35424 3.87352,45.30859 -29.73445,-24.31596 -1.81631,-25.74282 0.4397,0.18418 3.87576,29.48757 -5.00432,-5.44918 -2.88491,-0.62095 -18.22579,-15.84763 0.43121,2.69786 17.26931,16.61564 -23.13904,7.06309 1.27042,2.83776 19.0617,-7.71717 6.90596,-3.16437 31.39441,27.7973 -36.13868,4.51602 -2.05944,-1.08644 41.18754,-1.94006 38.81392,29.27345 -24.53992,5.84589 -22.90068,4.44082 -2.46332,1.43097 15.91061,-3.1525 36.63146,-6.1434 34.50012,27.15733 12.43768,8.58332 z"
         id="path11" />
      <path
         style="fill:#054d4a;fill-opacity:1;fill-rule:nonzero;stroke-width:0.976588"
         d="m 495.67185,555.24514 c 0,0 2.78782,-13.22983 2.33535,-19.89003 -1.2657,-18.63051 -5.48654,-37.61999 -13.99765,-54.24339 -6.20757,-12.12424 -16.00096,-22.23954 -26.0446,-31.24642 -5.47228,-4.90741 -11.93207,-8.51911 -18.27615,-12.09056 -5.07109,-2.85482 -10.37293,-5.25784 -15.73774,-7.41939 -7.01052,-2.82463 -13.49445,-4.84963 -21.4283,-7.22448 -18.1589,-2.69482 -16.10627,-4.45729 -15.2605,0.41458 l 10.21822,58.8595 46.61701,29.96658 -8.93591,-52.52349 -0.59496,-0.26705 8.0911,57.63071 z"
         id="path8" />
      <path
         style="display:inline;fill:#ffffff;fill-opacity:1"
         d="m 499.4656,558.08138 -58.12322,-46.30154 -15.24027,-62.11293 c -1.38721,-5.6537 -5.58017,-8.72242 -2.43623,4.41848 l 11.7532,53.35832 -38.66056,-29.30013 -7.54156,-38.05928 c -1.785,-3.41743 -3.57413,-5.49146 -3.42144,1.20299 0.14008,6.14173 8.70076,35.33657 6.09943,33.33975 l -27.63973,-21.2167 c -7.90708,-6.0696 1.32776,-21.09933 -1.33252,-26.22287 -2.41583,-4.65274 -2.53493,12.27691 -3.76565,18.58549 -0.23201,8.48583 -5.83046,0.22379 -8.56214,-1.64694 l -11.87435,-11.80411 c -2.72448,-2.70836 -6.16844,-0.59037 -2.93261,1.88969 2.53927,1.94619 19.86589,18.32217 17.05509,19.43776 l -12.5189,4.96865 c -2.80776,1.11438 -9.98004,2.16808 -4.38914,5.96353 l 20.51999,-8.95152 c 2.56246,-1.27547 4.81567,0.37578 7.15057,2.23421 l 27.50515,21.89229 c 1.19723,0.95291 0.92749,-1.02226 0.82541,-0.42021 -0.66601,3.92804 -25.16954,3.99118 -34.91808,6.08572 -5.61853,1.20718 -4.47578,3.0307 -0.6016,3.80766 8.33255,-1.42093 31.839,-4.08364 40.1978,-3.43444 12.3369,9.64494 24.17704,16.72325 36.51394,26.36819 -16.1753,3.75483 -32.65944,6.18674 -49.05261,8.60235 -1.37636,6.57472 10.07823,0.55446 14.05355,1.14271 13.13054,-2.16711 26.21084,-4.62768 39.27264,-7.17324 l 58.3695,46.30154 3.69432,-2.95542 z"
         id="path12" />
    </g>
    <g
       id="g36"
       transform="matrix(1.2508938,-0.12447863,0.1886773,1.0074787,-208.3029,49.341178)">
      <path
         style="display:inline;fill:#054d4a;fill-opacity:1"
         d="m 493.80105,559.86695 -1.53825,-1.66242 c 0,0 -7.61159,3.07083 -11.54842,4.20362 -7.029,2.02254 -14.16716,3.97815 -21.45478,4.60106 -11.41441,0.97565 -23.10551,0.84505 -34.3396,-1.39901 -11.54613,-2.3064 -22.81334,-6.57046 -33.13735,-12.23151 -11.61379,-6.3683 -22.54661,-14.40609 -31.64412,-24.03266 -10.41472,-11.02038 -18.67855,-24.14106 -25.42288,-37.72154 -5.75647,-11.59131 -9.18551,-24.24554 -12.53878,-36.74558 -2.86714,-10.68788 -6.44354,-32.56598 -6.44354,-32.56598 0,0 31.54567,-3.31852 47.36871,-3.1347 7.80929,0.0907 15.68605,0.51801 23.33606,2.0898 9.33248,1.91747 18.63759,4.63719 27.16734,8.88163 11.8363,5.8898 22.65757,13.8867 32.56599,22.63946 7.94865,7.02157 15.35951,14.86223 21.24626,23.68435 5.60618,8.40165 9.51203,17.88527 13.06122,27.3415 4.32065,11.51163 6.23117,23.79922 9.92653,35.52653 1.07739,3.41912 2.89363,6.62478 3.56676,10.14587 0.39814,2.08266 0.25266,6.35612 0.25266,6.35612 l -27.60272,-21.85578 -27.60272,-21.85579 -14.16614,-62.71168 -1.97475,1.03931 13.6526,56.88691 -2.72433,0.9964 -36.74557,-28.90885 -8.77938,-47.02634 1.14646,-0.35424 3.87352,45.30859 -29.73445,-24.31596 -1.81631,-25.74282 0.4397,0.18418 3.87576,29.48757 -5.00432,-5.44918 -2.88491,-0.62095 -18.22579,-15.84763 0.43121,2.69786 17.26931,16.61564 -23.13904,7.06309 1.27042,2.83776 19.0617,-7.71717 6.90596,-3.16437 31.39441,27.7973 -36.13868,4.51602 -2.05944,-1.08644 41.18754,-1.94006 38.81392,29.27345 -24.53992,5.84589 -22.90068,4.44082 -2.46332,1.43097 15.91061,-3.1525 36.63146,-6.1434 34.50012,27.15733 12.43768,8.58332 z"
         id="path1" />
      <path
         style="display:inline;fill:#ffffff;fill-opacity:1"
         d="m 499.4656,558.08138 -58.12322,-46.30154 -15.24027,-62.11293 c -1.38721,-5.6537 -5.58017,-8.72242 -2.43623,4.41848 l 11.7532,53.35832 -38.66056,-29.30013 -7.54156,-38.05928 c -1.785,-3.41743 -3.57413,-5.49146 -3.42144,1.20299 0.14008,6.14173 8.70076,35.33657 6.09943,33.33975 l -27.63973,-21.2167 c -7.90708,-6.0696 1.32776,-21.09933 -1.33252,-26.22287 -2.41583,-4.65274 -2.53493,12.27691 -3.76565,18.58549 -0.23201,8.48583 -5.83046,0.22379 -8.56214,-1.64694 l -11.87435,-11.80411 c -2.72448,-2.70836 -6.16844,-0.59037 -2.93261,1.88969 2.53927,1.94619 19.86589,18.32217 17.05509,19.43776 l -12.5189,4.96865 c -2.80776,1.11438 -9.98004,2.16808 -4.38914,5.96353 l 20.51999,-8.95152 c 2.56246,-1.27547 4.81567,0.37578 7.15057,2.23421 l 27.50515,21.89229 c 1.19723,0.95291 0.92749,-1.02226 0.82541,-0.42021 -0.66601,3.92804 -25.16954,3.99118 -34.91808,6.08572 -5.61853,1.20718 -4.47578,3.0307 -0.6016,3.80766 8.33255,-1.42093 31.839,-4.08364 40.1978,-3.43444 12.3369,9.64494 24.17704,16.72325 36.51394,26.36819 -16.1753,3.75483 -32.65944,6.18674 -49.05261,8.60235 -1.37636,6.57472 10.07823,0.55446 14.05355,1.14271 13.13054,-2.16711 26.21084,-4.62768 39.27264,-7.17324 l 58.3695,46.30154 3.69432,-2.95542 z"
         id="path3" />
    </g>
  </g>
</svg>
