<?xml version="1.0" encoding="UTF-8" standalone="no"?>
<!-- Created with Inkscape (http://www.inkscape.org/) -->

<svg
   version="1.1"
   id="svg1"
   width="975.87433"
   height="366.25601"
   viewBox="0 0 975.87433 366.25601"
   xml:space="preserve"
   xmlns="http://www.w3.org/2000/svg"
   xmlns:svg="http://www.w3.org/2000/svg"><defs
     id="defs1" /><g
     id="g1"
     transform="matrix(1.5410348,0,0,1.1100749,-122.71501,-436.65293)"><path
       style="fill:#ffffff;stroke:none;fill-opacity:1"
       d="m 354.1456,434.03402 h 1 c 5.29214,13.71863 10.64136,27.48041 16.42749,41 1.94946,4.55499 4.55753,12.2843 10.56094,12.42749 5.66736,0.13519 8.72678,-8.18756 10.5864,-12.42749 6.02374,-13.73413 11.77652,-27.73767 16.42517,-42 7.36447,17.45233 7.43188,45.10003 7.98611,64 0.14551,4.96234 -1.0401,21.0448 4.24228,23.2384 11.58533,4.81104 6.93552,-20.43811 6.76081,-25.2384 -0.71769,-19.71961 -4.48987,-39.42035 -6.83411,-59 -0.65292,-5.45337 -0.27115,-17.77063 -6.26389,-20.25385 -12.52615,-5.19049 -19.18148,23.48059 -22.29089,31.25385 -3.52276,8.80664 -7.45791,17.7395 -9.60031,27 -7.57959,-14.23224 -11.77191,-30.37818 -18.70294,-45 -2.31418,-4.88208 -5.04468,-13.31543 -11.29706,-14.12268 -9.62766,-1.24304 -8.75595,15.11255 -9.57639,21.12268 -2.88653,21.14557 -4.77529,42.72455 -6.33486,64 -0.36255,4.9458 -3.74396,17.51379 1.3449,20.80554 8.79978,5.69214 9.18277,-12.53516 9.47684,-16.80554 1.59726,-23.19409 6.08698,-46.7652 6.08951,-70 m 93,49 c 12.93262,-0.26691 38.25037,-3.12274 45.99075,-15.09339 10.37097,-16.03888 -14.86465,-33.66491 -28.99075,-31.60571 -39.75909,5.79578 -39.51932,76.07544 0,82.10803 11.90244,1.8169 24.05371,-4.07544 31.31946,-13.41278 2.77508,-3.56628 7.34216,-11.17041 3.07715,-15.39197 -6.35804,-6.29321 -14.64536,9.96241 -18.40046,13.18287 -15.24209,13.07196 -32.63812,-2.98035 -32.99615,-19.78705 m 81,-46.56018 c -15.5517,2.4989 -31.37549,22.78174 -15.89505,36.03088 9.82919,8.41242 22.91922,6.17285 33.89426,11.44824 4.93023,2.36982 9.31469,7.25293 7.64355,13.08106 -3.67145,12.80432 -24.25421,13.75567 -33.42901,7.00537 -3.62067,-2.66388 -5.79468,-11.71588 -11.93522,-7.97296 -6.15963,3.75458 -1.11163,12.37372 2.76545,15.57403 8.09628,6.68323 22.00485,7.52149 31.95602,5.95447 17.00507,-2.67773 32.34595,-22.66315 17.60956,-37.94208 -8.94983,-9.27929 -21.33484,-7.87896 -32.60956,-11.4151 -4.95728,-1.55475 -10.43274,-5.33032 -9.7276,-11.20373 1.78333,-14.85419 24.31665,-10.73072 31.68823,-3.89893 2.8819,2.6709 6.30738,7.98944 10.80786,4.99695 5.70136,-3.79102 0.6413,-10.76654 -2.78778,-13.9931 -7.849,-7.3855 -19.61145,-9.3313 -29.98071,-7.6651 m 67,0.0278 c -15.9212,3.00378 -27.92609,23.35534 -13.89508,36.20367 8.86468,8.1175 21.43549,6.40137 31.89508,10.80792 5.01746,2.11384 9.8656,6.55823 8.56561,12.52082 -2.86358,13.13403 -21.98913,14.18469 -31.5108,8.58258 -4.17004,-2.45349 -6.75208,-11.07111 -12.90668,-7.55017 -6.23718,3.56817 -0.99951,12.15228 2.94599,15.16742 8.16467,6.2395 22.11743,7.10113 31.90588,5.33569 17.29266,-3.11902 30.01941,-23.92615 15.89197,-38.44214 -8.45807,-8.69067 -20.14319,-7.79541 -30.89197,-11.13354 -5.05963,-1.57129 -10.46222,-4.83417 -9.72766,-10.95984 1.79248,-14.94776 24.18933,-10.78272 31.55792,-3.81946 2.75433,2.60284 6.39313,7.55981 10.73224,4.6358 5.19867,-3.50323 -0.62592,-10.93591 -3.58179,-13.63116 -8.0072,-7.30115 -20.47998,-9.69873 -30.98071,-7.71759 m 109,65.53241 c -5.66473,18.64258 -2.61981,44.37933 -19.17358,58.46679 -1.43445,1.22083 -3.06617,2.2295 -4.82721,2.90509 -16.01477,6.14435 -9.97058,-16.15643 -20.99616,-15.08483 -7.59375,0.73803 -7.00268,9.11743 -7.00305,14.71295 -10e-4,15.38049 0.18665,31.84613 3,47 -6.99628,-5.64032 -11.95667,-12.08789 -21,-14.79016 -15.49683,-4.63056 -31.80084,5.25287 -37.53552,19.79016 -11.37262,28.82928 0.60681,82.19165 40.53552,73.48303 9.23151,-2.01343 14.62976,-8.29614 22,-13.48303 -1.60638,6.50451 5.12286,24.41894 11.97223,12.85187 4.4267,-7.47577 -1.00598,-25.4823 -1.80249,-33.85187 -2.53931,-26.68225 -4.16974,-54.19715 -4.16974,-81 5.47467,0.80493 10.37872,2.5907 16,1.53241 11.9082,-2.24201 18.56152,-12.15265 23.13812,-22.53241 9.66547,-21.92145 7.28021,-44.10572 10.28626,-67 1.54602,-11.77448 0.5802,-24.13159 0.57562,-36 -10e-4,-3.86005 0.7478,-9.66406 -3.22766,-11.95679 -8.80969,-5.08069 -9.02112,10.42828 -8.48682,14.95679 0.82642,7.00397 0.71723,13.94903 0.71448,21 -0.007,18.12121 -19.28534,34.44415 -34.90662,18.90588 -13.5335,-13.46167 -13.11163,-31.65265 -16.32177,-48.90124 -0.7403,-3.97779 -5.41248,-8.1175 -9.16822,-4.40046 -5.74206,5.68293 -0.0714,25.70386 1.82489,32.39582 5.07245,17.90027 17.15265,39.15307 38.57172,37.90661 7.42975,-0.43237 13.4328,-3.85498 20,-6.90661 m -257,-29 c -2.18643,-13.14417 12.79935,-31.70801 26.99924,-25.34644 11.33258,5.07703 10.90915,15.18653 7.6e-4,19.00153 -3.28934,1.15039 -6.62317,2.11542 -10,2.9707 -5.64185,1.42902 -11.37109,2.0304 -17,3.37421 m -81,102 c 8.625,18.44262 13.94742,38.40643 22.30557,57 2.60767,5.80102 5.75263,16.3117 13.69367,16.3117 7.71664,0 9.78805,-10.74523 12.00076,-16.3117 7.48083,-18.8194 13.32312,-38.28296 21,-57 h 1 c 0.24289,29.34472 6.26929,60.80041 9.71451,90 0.58822,4.98547 -0.53266,32.29858 11.8912,23.12732 6.51737,-4.8111 1.98447,-20.28662 1.48304,-27.12732 -2.0311,-27.70832 -5.59742,-55.50305 -9.66745,-83 -1.17359,-7.92871 -0.76795,-28.86267 -13.41745,-26.56555 -8.33884,1.51428 -11.18226,12.79699 -13.68519,19.56555 -7.19082,19.44574 -12.53952,40.22772 -21.31866,59 -3.37637,-11.89325 -8.20935,-23.52149 -12.80017,-35 -2.66379,-6.66034 -5.07855,-13.41175 -7.91898,-20 -2.94864,-6.83924 -13.59857,-35.91724 -24.42361,-19.89124 -5.22067,7.72901 -4.2168,22.85779 -4.9429,31.89124 -1.94782,24.23327 -3.32538,48.90967 -6.48996,73 -0.9661,7.35437 -7.81626,34.02899 5.56018,31.76697 9.4837,-1.60376 6.50525,-20.64917 7.43982,-27.76697 3.83676,-29.22156 1.70758,-60.23236 8.57562,-89 m 118.99924,-18.1875 c -10.8544,0.41321 -11.28131,17.1474 0,16.66894 10.87491,-0.46118 11.08801,-17.09106 0,-16.66894 m 43.00076,54.1875 c -1.02527,-3.72009 0.41235,-8.50348 -1.87268,-11.77161 -3.58084,-5.1214 -10.42856,-2.66949 -11.73303,2.79016 -1.72098,7.20288 -0.11081,15.60913 -0.43366,22.98145 -0.62579,14.29016 -1.96063,28.68591 -1.96063,43 0,4.65454 -2.27148,24.73486 7.85187,19.63812 5.74682,-2.89337 4.12286,-17.23505 4.14892,-22.63812 0.0755,-15.6612 3.073,-36.58533 13.32795,-49 4.72924,-5.72522 11.64825,-11.58728 19.67126,-10.22534 8.57349,1.45544 11.24695,9.74054 12.15509,17.22534 1.99915,16.47674 -1.23291,33.34521 -0.0656,50 0.38592,5.50586 5.05377,22.46838 13.30328,13.34723 3.56909,-3.94623 -1.30658,-14.37201 -1.38971,-19.34723 -0.30261,-18.10742 6.42829,-50.30622 -6.33252,-64.95679 -12.70001,-14.58081 -39.90106,-8.5163 -46.67053,8.95679 m -45.85187,-12.97144 c -5.61706,3.27527 -4.14813,14.52222 -4.14813,19.97144 0,18.99743 1.19418,38.03381 2.03937,57 0.23056,5.17383 2.59186,17.81689 10.73224,12.96838 5.91735,-3.52447 1.91626,-15.52417 1.39816,-20.96838 -1.9682,-20.68219 0.97284,-41.47895 -0.21454,-62 -0.29205,-5.04749 -4.2977,-10.18402 -9.8071,-6.97144 m 140.85187,8.30017 c 11.77094,-2.06787 19.6908,5.34662 25.61652,14.67127 11.89764,18.72204 9.37152,52.62842 -17.61652,56.49304 -9.11438,1.30518 -16.80792,-5.9364 -20.62268,-13.49304 -7.84076,-15.53174 -10.49121,-53.61084 12.62268,-57.67127 m -2,9.67127 1,1 -1,-1 m 23,1 1,1 -1,-1 m 2,49 1,1 -1,-1 m -2,2 1,1 -1,-1 m -322,9 1,1 -1,-1 m 351,11 1,1 -1,-1 m -309,5 1,1 -1,-1 m 21,43 1,1 z"
       id="path8" /></g><g
     transform="matrix(0.6936421,0,0,0.61912826,-214.89558,-95.307465)"
     id="g4"><path
       fill="#ffffff"
       d="M 733.14658,440.90152 C 752.86317,564.16947 667.66662,715.77602 552.22513,714.84192 408.20555,713.67657 288.49807,680.12119 320.80156,546.04913 352.46271,414.64311 398.42999,335.70815 500.73423,236.21396 593.71259,145.78948 713.11626,315.67214 733.14658,440.90152 Z"
       id="path1"
       style="fill:#ffffff;fill-opacity:1" /><path
       fill="#e6d1b8"
       d="M 691.49529,504.50073 C 738.34634,436.7361 767.78512,365.4781 657.5,376.30186 c -37.53879,3.68418 -50.68312,-9.99583 -63.21198,-25.75546 -12.54655,-15.78189 -21.13714,-49.14765 -26.93209,-85.34712 -1.78318,-10.44347 -10.27439,-70.98471 28.01923,-93.3513 54.47894,-37.32652 96.86296,-10.0619 137.01377,24.87921 49.20124,56.4739 94.62208,119.88132 105.13582,196.31004 32.21372,186.83795 -334.47254,384.02463 -146.02946,111.4635 z M 377,334.40407 c -51.21065,-65.37543 11.434,-152.23892 98.34915,-75.00532 22.84356,21.65701 20.17767,74.00252 -28.84915,93.09888 -29.9164,8.7883 -50.2885,4.40311 -69.5,-18.09356 z"
       id="path2" /><path
       fill="#dab99c"
       d="m 721.28267,461.12843 c 12.95572,-31.7804 12.16775,-44.26834 0.41698,-74.53488 0.78986,-2.80145 2.09238,-7.56855 2.89449,-10.59355 1.37873,-5.19955 3.65082,-11.07395 7.34879,-19 4.56084,-9.77548 12.37278,-17.94446 20.19555,-21.11856 5.58337,-2.26547 14.79593,-2.26052 21.75216,0.0117 18.18935,5.94143 29.44392,29.96525 29.56404,63.10688 0.30731,84.8267 -83.50288,81.59733 -82.17201,62.12841 z"
       id="path3" /><path
       fill="#8ea080"
       d="m 335.09978,698.25 c 6.45486,-35.31955 46.58606,-64.58234 84.83656,-53.70447 10.30831,7.45593 99.72893,91.78447 25.56366,93.99258 -34.12372,1.85813 -117.16817,-3.2554 -110.40022,-40.28811 z M 748.86034,572.62348 C 863.44298,535.54275 849.94328,643.42684 830.54133,678.19179 734.47588,851.9277 532.54172,642.62274 748.86034,572.62348 Z"
       id="path4" /></g></svg>
