<?xml version="1.0" encoding="UTF-8" standalone="no"?>
<!-- Created with Inkscape (http://www.inkscape.org/) -->

<svg
   version="1.1"
   id="svg1"
   width="1024"
   height="1024"
   viewBox="0 0 1024 1024"
   sodipodi:docname="fav_icon.svg"
   inkscape:version="1.4.2 (f4327f4, 2025-05-13)"
   xmlns:inkscape="http://www.inkscape.org/namespaces/inkscape"
   xmlns:sodipodi="http://sodipodi.sourceforge.net/DTD/sodipodi-0.dtd"
   xmlns="http://www.w3.org/2000/svg"
   xmlns:svg="http://www.w3.org/2000/svg">
  <sodipodi:namedview
     id="namedview1"
     pagecolor="#ffffff"
     bordercolor="#000000"
     borderopacity="0.25"
     inkscape:showpageshadow="2"
     inkscape:pageopacity="0.0"
     inkscape:pagecheckerboard="true"
     inkscape:deskcolor="#d1d1d1"
     inkscape:zoom="0.50754247"
     inkscape:cx="446.26808"
     inkscape:cy="534.93061"
     inkscape:window-width="2304"
     inkscape:window-height="1190"
     inkscape:window-x="-11"
     inkscape:window-y="-11"
     inkscape:window-maximized="1"
     inkscape:current-layer="svg1" />
  <defs
     id="defs1" />
  <g
     id="g1"
     transform="matrix(1.9399475,0,0,1.7315872,-591.08632,-282.57907)">
    <g
       id="g9"
       transform="translate(-8.3591874,9.7523811)">
      <path
         id="path8"
         style="fill:#ffffff;stroke-width:1.17409"
         d="M 733.14658,440.90152 C 752.86317,564.16947 667.66662,715.77602 552.22513,714.84192 408.20555,713.67657 288.49807,680.12119 320.80156,546.04913 352.46271,414.64311 398.42999,335.70815 500.73423,236.21396 593.71259,145.78948 713.11626,315.67214 733.14658,440.90152 Z"
         inkscape:transform-center-x="30.754847"
         inkscape:transform-center-y="-7.6986277" />
      <path
         style="fill:#d7c5ad"
         d="M 691.49529,504.50073 C 738.34634,436.7361 767.78512,365.4781 657.5,376.30186 c -37.53879,3.68418 -50.68312,-9.99583 -63.21198,-25.75546 -12.54655,-15.78189 -21.13714,-49.14765 -26.93209,-85.34712 -1.78318,-10.44347 -10.27439,-70.98471 28.01923,-93.3513 54.47894,-37.32652 96.86296,-10.0619 137.01377,24.87921 49.20124,56.4739 94.62208,119.88132 105.13582,196.31004 32.21372,186.83795 -334.47254,384.02463 -146.02946,111.4635 z M 377,334.40407 c -51.21065,-65.37543 11.434,-152.23892 98.34915,-75.00532 22.84356,21.65701 20.17767,74.00252 -28.84915,93.09888 -29.9164,8.7883 -50.2885,4.40311 -69.5,-18.09356 z"
         id="path12" />
      <path
         style="fill:#cbac8c"
         d="m 721.28267,461.12843 c 12.95572,-31.7804 12.16775,-44.26834 0.41698,-74.53488 0.78986,-2.80145 2.09238,-7.56855 2.89449,-10.59355 1.37873,-5.19955 3.65082,-11.07395 7.34879,-19 4.56084,-9.77548 12.37278,-17.94446 20.19555,-21.11856 5.58337,-2.26547 14.79593,-2.26052 21.75216,0.0117 18.18935,5.94143 29.44392,29.96525 29.56404,63.10688 0.30731,84.8267 -83.50288,81.59733 -82.17201,62.12841 z"
         id="path11" />
      <path
         style="fill:#76896d"
         d="m 335.09978,698.25 c 6.45486,-35.31955 46.58606,-64.58234 84.83656,-53.70447 10.30831,7.45593 99.72893,91.78447 25.56366,93.99258 -34.12372,1.85813 -117.16817,-3.2554 -110.40022,-40.28811 z M 748.86034,572.62348 C 863.44298,535.54275 849.94328,643.42684 830.54133,678.19179 734.47588,851.9277 532.54172,642.62274 748.86034,572.62348 Z"
         id="path10" />
    </g>
  </g>
</svg>
